<svg xmlns="http://www.w3.org/2000/svg" xmlns:xlink="http://www.w3.org/1999/xlink" fill="none" version="1.1" width="461" height="512" viewBox="0 0 461 512"><defs><linearGradient x1="0.8146921396255493" y1="0.01698988676071167" x2="0.2559567660822836" y2="1.0375646955561952" id="master_svg0_7_1806"><stop offset="0%" stop-color="#00E4FE" stop-opacity="1"/><stop offset="53.568971157073975%" stop-color="#1570EF" stop-opacity="1"/><stop offset="100%" stop-color="#710ED6" stop-opacity="1"/></linearGradient></defs><g><g><path d="M4.90827,377.094C10.1889,389.579,19.4086,400.002,31.1662,406.779L191.32,499.08C196.74,445.94,177.504,393.245,139.106,356.043C101.1,369.802,60.0899,377.305,17.324,377.305C13.1685,377.305,9.02952,377.235,4.90827,377.094ZM180.581,337.964C222.559,385.604,241.566,449.187,232.606,512C242.828,511.655,252.808,508.804,261.666,503.699L262.897,502.99C268.633,437.993,248.285,373.382,206.324,323.353C197.968,328.565,189.381,333.441,180.581,337.964ZM242.595,297.459C284.114,348.151,307.265,411.355,308.295,476.826L332.972,462.604C328.997,396.029,304.006,332.42,261.581,280.898C255.452,286.636,249.119,292.16,242.595,297.459ZM289.934,251.135C335.318,304.696,363.865,370.431,372,440.11L429.834,406.779C449.12,395.664,461,375.122,461,352.893L461,159.051C461,136.821,449.12,116.28,429.834,105.165L370.939,71.2223C361.285,139.258,332.393,201.117,289.934,251.135ZM0.0000778784,336.902C5.73554,337.211,11.5115,337.367,17.324,337.367C182.793,337.367,318.666,210.871,333.193,49.4678L306.858,34.2901C299.785,187.809,172.861,310.105,17.324,310.105C11.5077,310.105,5.73151,309.934,0.0000768736,309.597L0.0000778784,336.902ZM0.0000752771,266.213C5.72311,266.61,11.4999,266.811,17.324,266.811C153.448,266.811,263.798,156.656,263.798,20.7715C263.798,16.9339,263.71,13.1169,263.536,9.32222L261.666,8.24459C253.182,3.35498,243.663,0.530409,233.881,-0.0000261758C234.531,6.83641,234.863,13.7652,234.863,20.7715C234.863,140.703,137.468,237.927,17.324,237.927C11.4929,237.927,5.71543,237.698,0.0000742112,237.249L0.0000752771,266.213ZM192.108,12.4094L31.1662,105.165C11.8805,116.28,0.0000713335,136.821,0.0000713335,159.051L0.0000726417,194.598C5.69888,195.158,11.4779,195.444,17.324,195.444C113.963,195.444,192.305,117.24,192.305,20.7715C192.305,17.9682,192.238,15.1804,192.108,12.4094Z" fill-rule="evenodd" fill="url(#master_svg0_7_1806)" fill-opacity="1"/></g></g></svg>