<svg xmlns="http://www.w3.org/2000/svg" xmlns:xlink="http://www.w3.org/1999/xlink" fill="none" version="1.1" width="24" height="24" viewBox="0 0 24 24"><defs><clipPath id="master_svg0_5_953"><rect x="0" y="0" width="24" height="24" rx="0"/></clipPath></defs><g clip-path="url(#master_svg0_5_953)"><g><path d="M17.826700085830687,11.847500085830688C18.286900085830688,11.847500085830688,18.66000008583069,11.474490085830688,18.66000008583069,11.014250085830689L18.66000008583069,9.993250085830688C18.66000008583069,9.53301008583069,19.03310008583069,9.160000085830688,19.49330008583069,9.160000085830688C19.95360008583069,9.160000085830688,20.326700085830687,9.53301008583069,20.326700085830687,9.993250085830688L20.326700085830687,15.014200085830689C20.326700085830687,16.394900085830688,19.207400085830688,17.514200085830687,17.826700085830687,17.514200085830687L13.596670085830688,17.514200085830687L8.146670085830689,20.23920008583069C7.592640085830689,20.51520008583069,6.941670085830689,20.11230008583069,6.941670085830689,19.49330008583069L6.941670085830689,17.514200085830687L6.1600000858306885,17.514200085830687C4.779290085830688,17.514200085830687,3.6600000858306885,16.394900085830688,3.6600000858306885,15.014200085830689L3.6600000858306885,6.1600000858306885C3.6599999586736884,4.779290085830688,4.779290085830688,3.6600003401436885,6.1600000858306885,3.6600002129876885L13.055830085830689,3.6600000858306885C13.516230085830689,3.6597752728306885,13.889600085830688,4.032856085830688,13.889600085830688,4.493252085830688C13.889600085830688,4.953650085830688,13.516230085830689,5.3269700858306885,13.055830085830689,5.326750085830689L12.160000085830688,5.326750085830689C11.699760085830688,5.326750085830689,11.326670085830688,5.699760085830688,11.326670085830688,6.1600000858306885L11.326670085830688,11.014250085830689C11.326670085830688,11.474490085830688,11.699760085830688,11.847500085830688,12.160000085830688,11.847500085830688C16.048900085830688,11.847500085830688,13.937800085830688,11.847500085830688,17.826700085830687,11.847500085830688ZM16.21250008583069,3.6600002129876885C16.67270008583069,3.6600002129876885,17.045800085830688,4.033096085830689,17.045800085830688,4.493333085830688L17.045800085830688,6.4725000858306885L19.02500008583069,6.4725000858306885C19.48520008583069,6.4725000858306885,19.858300085830688,6.8456000858306885,19.858300085830688,7.305830085830689C19.858300085830688,7.766070085830688,19.48520008583069,8.139170085830688,19.02500008583069,8.139170085830688L17.045800085830688,8.139170085830688L17.045800085830688,10.118330085830689C17.046300085830687,10.57889008583069,16.67310008583069,10.95248008583069,16.21250008583069,10.95248008583069C15.75190008583069,10.95248008583069,15.378700085830689,10.57889008583069,15.37920008583069,10.118330085830689L15.37920008583069,8.139170085830688L13.400000085830689,8.139170085830688C12.939760085830688,8.139170085830688,12.566670085830689,7.766070085830688,12.566670085830689,7.305830085830689C12.566670085830689,6.8456000858306885,12.939760085830688,6.4725000858306885,13.400000085830689,6.4725000858306885L15.378300085830688,6.4725000858306885L15.378300085830688,4.493333085830688C15.378300085830688,4.033096085830689,15.751400085830689,3.6600002129876885,16.21170008583069,3.6600002129876885L16.21250008583069,3.6600002129876885Z" fill="#FFFFFF" fill-opacity="1" style="mix-blend-mode:passthrough"/></g></g></svg>