<svg xmlns="http://www.w3.org/2000/svg" xmlns:xlink="http://www.w3.org/1999/xlink" fill="none" version="1.1" width="24" height="24" viewBox="0 0 24 24"><defs><clipPath id="master_svg0_5_928"><rect x="0" y="0" width="24" height="24" rx="0"/></clipPath></defs><g clip-path="url(#master_svg0_5_928)"><g><path d="M15.7392,5.7197499999999994Q15.5448,5.7197499999999994,15.399,5.5697600000000005Q15.2533,5.41977,15.1561,5.21979Q15.0589,5.0198,15.0103,4.809810000000001Q14.9617,4.59983,14.9617,4.45984L14.9617,2.00000110006L15.0006,2.00000110006Q15.1561,2.00000110006,15.3213,2.0399984Q15.4865,2.0799958,15.71,2.229986Q15.9335,2.379976,16.2542,2.649958Q16.5749,2.91994,17.0608,3.35991Q17.5855,3.83988,17.8868,4.16986Q18.188000000000002,4.49983,18.3533,4.72982Q18.5185,4.9597999999999995,18.557299999999998,5.11979Q18.5962,5.279780000000001,18.5962,5.39977L18.5962,5.7197499999999994L15.7392,5.7197499999999994ZM11.24951,16.999000000000002Q11.24951,18.1389,11.69653,19.1189Q12.14355,20.0988,12.92098,20.7987L6.5072,20.7987Q6.137919999999999,20.7987,5.70062,20.5788Q5.26332,20.3588,4.884323,19.9988Q4.505328,19.6388,4.252664,19.1689Q4.000000289923,18.6989,4,18.1989L4,4.579829999999999Q4,4.15986,4.194357,3.69989Q4.388714,3.2399199999999997,4.709402,2.869942Q5.0300899999999995,2.499967,5.43824,2.249983Q5.8463899999999995,1.9999999067746,6.29341,2L13.71784,2L13.71784,4.49983Q13.71784,4.87981,13.83445,5.31978Q13.95107,5.75975,14.2037,6.12972Q14.4564,6.4997,14.8451,6.74968Q15.2338,6.99967,15.7586,6.99967L18.5962,6.99967L18.5962,12.5593Q18.0714,12.2393,17.4592,12.0693Q16.847,11.89934,16.1862,11.89934Q14.7868,11.89934,13.64981,12.6093Q12.51283,13.3192,11.87145,14.4992L7.65391,14.4992Q7.14858,14.4992,6.78902,14.8691Q6.429460000000001,15.2391,6.429460000000001,15.7591Q6.429460000000001,16.279,6.78902,16.639Q7.14858,16.999000000000002,7.65391,16.999000000000002L11.24951,16.999000000000002ZM7.65391,9.499500000000001Q7.14858,9.499500000000001,6.78902,9.85948Q6.429460000000001,10.21945,6.429460000000001,10.73942Q6.429460000000001,11.25939,6.78902,11.62936Q7.14858,11.99934,7.65391,11.99934L14.9423,11.99934Q15.4476,11.99934,15.8072,11.62936Q16.1667,11.25938,16.1667,10.73942Q16.1667,10.21945,15.8072,9.85948Q15.4476,9.499500000000001,14.9423,9.499500000000001L7.65391,9.499500000000001ZM20.6952,20.6988Q20.9673,21.0387,20.9965,21.2687Q21.0257,21.4987,20.8119,21.7387Q20.5786,22.0187,20.3065,21.9987Q20.0344,21.9787,19.7623,21.7587L18.110300000000002,20.1188Q17.5855,20.4588,16.973300000000002,20.6088Q16.3611,20.7588,15.7586,20.7088Q15.1561,20.6588,14.5827,20.3988Q14.0094,20.1388,13.54292,19.6388Q13.01816,19.0989,12.74606,18.3989Q12.47396,17.698999999999998,12.47396,16.979Q12.47396,16.2591,12.74606,15.5691Q13.01816,14.8791,13.54292,14.3192Q14.0677,13.7792,14.7285,13.4992Q15.3893,13.2193,16.089,13.2193Q16.7887,13.2193,17.4592,13.4992Q18.1297,13.7792,18.6545,14.3192Q19.121000000000002,14.8191,19.3736,15.4191Q19.6263,16.0191,19.6749,16.649Q19.7235,17.279,19.5777,17.898899999999998Q19.4319,18.5189,19.1015,19.0589L20.6952,20.6988ZM16.1084,19.4588Q16.5943,19.4588,17.021900000000002,19.2589Q17.4495,19.0589,17.770200000000003,18.7289Q18.090899999999998,18.3989,18.2755,17.948900000000002Q18.4601,17.499000000000002,18.4601,16.979Q18.4601,16.479,18.2755,16.0291Q18.090899999999998,15.5791,17.770200000000003,15.2391Q17.4495,14.8991,17.021900000000002,14.7092Q16.5943,14.5192,16.1084,14.5192Q15.6031,14.5192,15.1755,14.7092Q14.7479,14.8991,14.4272,15.2391Q14.1066,15.5791,13.92191,16.0291Q13.73728,16.479,13.73728,16.979Q13.73728,17.499000000000002,13.92191,17.948900000000002Q14.1066,18.3989,14.4272,18.7289Q14.7479,19.0589,15.1755,19.2589Q15.6031,19.4588,16.1084,19.4588Z" fill="#FFFFFF" fill-opacity="1" style="mix-blend-mode:passthrough"/></g></g></svg>