<svg xmlns="http://www.w3.org/2000/svg" xmlns:xlink="http://www.w3.org/1999/xlink" fill="none" version="1.1" width="24" height="24" viewBox="0 0 24 24"><defs><clipPath id="master_svg0_5_944"><rect x="0" y="0" width="24" height="24" rx="0"/></clipPath></defs><g clip-path="url(#master_svg0_5_944)"><g><path d="M22,6.802630000000001L22,18.8816C21.9993,19.499,21.5131,19.9993,20.913,20L3.08696,20C2.486927,19.9993,2.000674051,19.499,2,18.8816L2,4.11843C2.000673662,3.501026,2.486926,3.000697402,3.08696,3.00000415978L9.1212,3.00000415978C9.40963,2.999188524,9.686399999999999,3.117138,9.88981,3.327562L12.1164,5.618650000000001C12.1571,5.66079,12.2124,5.6844,12.2701,5.68421L20.913,5.68421C21.5131,5.68491,21.9993,6.18524,22,6.802630000000001ZM15.6141,11.96457C15.563,11.80262,15.4269,11.68458,15.2632,11.66008L13.2772,11.36328L12.3899,9.51257C12.3167,9.3598,12.1655,9.263069999999999,12,9.263069999999999C11.83446,9.263069999999999,11.68327,9.3598,11.61006,9.51257L10.72283,11.36328L8.737770000000001,11.66008C8.57412,11.68458,8.43816,11.80249,8.38696,11.96429C8.33577,12.12609,8.37821,12.30376,8.49647,12.4227L9.93275,13.8627L9.59307,15.8969C9.56512,16.064799999999998,9.63218,16.2344,9.76606,16.334400000000002C9.89995,16.4345,10.07744,16.447699999999998,10.22391,16.368499999999997L12,15.4093L13.7754,16.3696C13.9219,16.4488,14.0994,16.4356,14.2333,16.3356C14.3671,16.235500000000002,14.4342,16.0659,14.4062,15.8981L14.0666,13.8638L15.5029,12.42382C15.6221,12.30511,15.6652,12.12696,15.6141,11.96457Z" fill="#FFFFFF" fill-opacity="1" style="mix-blend-mode:passthrough"/></g></g></svg>