<svg xmlns="http://www.w3.org/2000/svg" xmlns:xlink="http://www.w3.org/1999/xlink" fill="none" version="1.1" width="24" height="24" viewBox="0 0 24 24"><defs><clipPath id="master_svg0_5_936"><rect x="0" y="0" width="24" height="24" rx="0"/></clipPath></defs><g clip-path="url(#master_svg0_5_936)"><g><path d="M20.4717,12.3921C20.104,12.3937,19.7495,12.51765,19.474,12.74091L15.3276,12.18071C15.2776,11.74342,15.124,11.32139,14.8777,10.94405L18.3379,7.57759C18.6258,7.68332,18.9332,7.73715,19.2434,7.73613C20.6463,7.74198,21.7881,6.70349,21.7924,5.417870000000001C21.7966,4.13225,20.6617,3.0874305,19.2588,3.0854737C17.855800000000002,3.0835303,16.717399999999998,4.12518,16.717399999999998,5.41079C16.716900000000003,5.818099999999999,16.8365,6.21797,17.0634,6.56818L13.6551,9.86065C13.1898,9.61298,12.6647,9.474969999999999,12.1269,9.459L11.27336,5.65918C12.1463,4.8927700000000005,11.8798,3.558074,10.76721,3.124655C9.654630000000001,2.691236,8.420919999999999,3.441493,8.42445,4.54936C8.42498,5.2314,8.91565,5.83164,9.629760000000001,6.02383L10.48904,9.74967C10.09866,9.93214,9.74863,10.17943,9.45675,10.47898L5.3794699999999995,8.55L5.3794699999999995,8.47602C5.37946,7.62013,4.62177,6.9265799999999995,3.68781,6.92756C2.753842,6.92854,1.99787771,7.62367,2.00000478836,8.47955C2.0021319,9.335429999999999,2.7615439999999998,10.0274,3.6955,10.02448C3.95479,10.02427,4.21012,9.96623,4.43945,9.85537L8.68973,11.86362C8.641110000000001,12.08272,8.61792,12.30593,8.620529999999999,12.52951C8.631170000000001,13.1291,8.83151,13.7129,9.197230000000001,14.2101L5.737019999999999,17.5713C4.4607,17.0015,2.922672,17.5047,2.328721,18.6864C2.167878,18.9949,2.0850831,19.3327,2.0865061,19.6747C2.086506,20.9589,3.22258,22,4.62399,22C6.02541,22,7.16148,20.9589,7.16148,19.6747C7.16187,19.3283,7.07504,18.9864,6.90773,18.675800000000002L10.41984,15.2776C10.90803,15.5161,11.45255,15.6413,12.0058,15.6423C12.3648,15.6443,12.7216,15.5907,13.0611,15.4838L15.6563,19.2413C15.1801,20.0826,15.6395,21.1146,16.622,21.4105C17.604599999999998,21.7064,18.6425,21.1253,18.8037,20.1892C18.9649,19.253,18.1726,18.4073,17.1384,18.4116L17.0807,18.4116L14.474,14.6435C14.7453,14.3751,14.9638,14.0658,15.12,13.7292L19.0588,14.2577C19.2726,14.8047,19.8376,15.1703,20.4717,15.1719C21.3158,15.1719,22,14.5449,22,13.7715C22,12.99799,21.3158,12.37097,20.4717,12.37097" fill="#FFFFFF" fill-opacity="1" style="mix-blend-mode:passthrough"/></g></g></svg>