<svg xmlns="http://www.w3.org/2000/svg" xmlns:xlink="http://www.w3.org/1999/xlink" fill="none" version="1.1" width="40" height="40" viewBox="0 0 40 40"><g><g><ellipse cx="20" cy="20" rx="20" ry="20" fill="#2A3648" fill-opacity="1"/></g><g><path d="M14.80072,13.23828L13.000399999999999,11.42138L11.500440000000001,12.93519L13.30076,14.752089999999999L14.80072,13.23828ZM11.99992,18.99033L9.000000474537,18.99033L9,21.008200000000002L11.99992,21.008200000000002L11.99992,18.99033ZM20.9997,9L19.0003,9L19.0003,11.92562L20.9997,11.92562L20.9997,9ZM28.4996,12.93519L26.9996,11.42138L25.1992,13.23828L26.5997,14.6515L28.4996,12.93519ZM25.1992,26.7617L26.9996,28.5771L28.4014,27.1653L26.5997,25.3485L25.1992,26.7617ZM28,21.008200000000002L31,21.008200000000002L31,18.99033L28,18.99033L28,21.008200000000002ZM20.000799999999998,13.94341C16.70061,13.94341,14.00089,16.66942,14.00089,19.9986C14.00089,23.329,16.70061,26.0536,20.000799999999998,26.0536C23.3009,26.0536,26.0005,23.329,26.0005,19.9986C26.0005,16.66942,23.3009,13.94341,20.000799999999998,13.94341ZM19.0003,31L20.9997,31L20.9997,28.073L19.0003,28.073L19.0003,31ZM11.500440000000001,27.0633L13.000399999999999,28.5771L14.80072,26.7617L13.4018,25.3485L11.500440000000001,27.0633Z" fill="#9295A0" fill-opacity="1" style="mix-blend-mode:passthrough"/></g></g></svg>